<svg width="26" height="25" viewBox="0 0 26 25" fill="none" xmlns="http://www.w3.org/2000/svg">
<path d="M25.2871 9.42562H22.3514L22.8505 9.04397C23.7018 8.36874 24.7294 7.07701 24.9936 6.0495V0.119262H13.6322V6.19628H18.212L17.8303 6.57793C17.2432 7.16508 16.6267 7.48802 15.9221 7.57609V9.42562H12.7515V1.44035H8.81754V0.0605469H1.83043V1.44035H0.714844V7.72288H1.74236V7.95774C1.56621 12.1852 1.27264 14.2109 0.802916 16.2366L2.32951 17.2054L1.85979 17.3522C1.5075 17.4696 1.12585 17.5577 0.714844 17.6457V24.6329C3.88546 24.0163 6.38086 22.9301 8.34782 21.2274L8.46525 21.1099L13.2212 24.1338V17.0586L12.7808 16.7944H12.6927V16.7357L11.6065 16.1191L11.6652 15.943C12.2524 14.5045 12.6047 12.8898 12.7221 11.1871L13.1625 11.2164V16.3834H15.9221V17.2347C15.9221 17.6164 15.7166 17.8219 15.3349 17.8219H14.1606V24.5154H17.9771C20.8541 24.5154 22.7624 23.6347 22.7624 19.2604V16.354H25.2871V9.42562ZM7.93681 8.72104C7.93681 10.5412 7.67259 12.0384 7.1148 13.2421L7.02672 13.4476L6.38086 13.0953L6.41021 12.9485C6.61572 11.5394 6.7625 10.1596 6.85058 7.92838V7.72288H7.93681V8.72104Z" fill="#6386D1"/>
</svg>
