<svg width="25" height="25" viewBox="0 0 25 25" fill="none" xmlns="http://www.w3.org/2000/svg">
<path d="M24.4255 24.426V18.9949C20.521 18.9949 17.7907 18.9655 15.4127 18.8187L15.1485 18.7893L15.2072 18.5545C15.2953 18.1728 15.3247 17.7618 15.354 17.3215V17.116H23.6035V6.45916H15.7063V5.54907H24.4255V0.235352H0V5.54907H8.66049V6.45916H0.645867V17.116H8.89535L8.83663 17.4095C8.74856 17.7618 8.57242 18.0848 8.36691 18.349L8.24948 18.4371L8.13205 18.4077C7.80912 18.3196 7.57426 18.1728 7.42747 17.9967H1.05687C1.29173 18.4077 1.55595 18.8481 1.84953 19.2297L2.11375 19.582H0V24.426C4.34492 24.426 7.60362 24.0737 9.92287 23.4278H9.98158H10.0403C13.4458 24.0737 18.0256 24.3966 24.4255 24.426ZM15.1192 9.57106H17.4678V10.7747H15.1192V9.57106ZM15.1192 12.771H17.4678V13.9747H15.1192V12.771ZM9.24764 13.9747H6.95775V12.771H9.24764V13.9747ZM9.24764 10.7747H6.95775V9.57106H9.24764V10.7747Z" fill="#6386D1"/>
</svg>
