<svg width="26" height="25" viewBox="0 0 26 25" fill="none" xmlns="http://www.w3.org/2000/svg">
<path d="M18.4173 0.0283203H14.0137V1.20262H18.4173V0.0283203Z" fill="#6386D1"/>
<path d="M14.0137 8.95312V11.8889H18.4173V8.95312H14.0137ZM16.8026 11.0375H15.599V9.92193H16.8026V11.0375Z" fill="#6386D1"/>
<path d="M25.141 18.1136H13.5741V17.2329H25.141V12.7706H23.9961V11.8898H25.4933L25.3172 8.95407H23.9667V8.04398H25.2878L24.9355 3.90456H23.3796L25.4052 1.35045H22.5576L23.8493 0.0293576H20.3264L19.1814 1.14495V2.20182H13.4567V3.90456H19.1814V4.08071H20.2383L19.064 5.43115V8.1027H20.4732V9.01278H19.1521C19.1521 10.3339 19.1227 11.2733 19.0053 11.9485H20.4732V12.8293H11.9595V11.9485H13.3099L13.0751 9.01278H11.9595V8.04398H13.4567L13.0164 3.90456H11.6072L13.0164 2.17246L13.4567 1.64403L13.7209 1.32109H10.6677L11.9301 0H8.34849L7.17419 1.11559V4.05135H8.20171L7.17419 5.16694V8.07334H8.49528V8.98342H7.17419C7.17419 10.3339 7.11548 11.2733 6.99805 11.9192H8.46593V12.7999H7.0274V14.6494H19.0347V15.5302H7.08612V19.9338H19.0347V20.3742C19.0347 20.6677 18.8585 20.8439 18.5356 20.8439H7.08612V24.4255H22.264C24.0842 24.4255 25.141 23.4274 25.141 21.6659V18.1136ZM23.0566 3.84584L23.1741 5.4018H21.7355L23.0566 3.84584ZM9.66959 5.4018L11.0494 3.8752L11.1668 5.4018H9.66959Z" fill="#6386D1"/>
<path d="M18.4173 6.86914H14.0137V8.04344H18.4173V6.86914Z" fill="#6386D1"/>
<path d="M6.26508 13.6809V7.75066L0.863281 6.95801V12.8882L6.26508 13.6809Z" fill="#6386D1"/>
<path d="M6.26508 6.83904V0.938163L0.863281 0.145508V6.07574L6.26508 6.83904Z" fill="#6386D1"/>
<path d="M1.15557 14.4434C1.12621 15.8819 0.861996 22.2525 0.539062 24.3075H5.73536C6.05829 22.8396 6.35186 18.4653 6.35186 14.4434H1.15557Z" fill="#6386D1"/>
<path d="M18.4173 4.78516H14.0137V5.95946H18.4173V4.78516Z" fill="#6386D1"/>
</svg>
