<svg width="25" height="25" viewBox="0 0 25 25" fill="none" xmlns="http://www.w3.org/2000/svg">
<path d="M24.7077 0.910024H18.6601L19.394 0.528376L19.4234 0.0586545H13.6693C13.6693 2.61276 13.4638 4.31551 13.0528 5.43109L12.6124 6.57604V1.58525H9.76473L10.1464 0.0292969H3.8345L3.48221 1.58525H0.751953V24.2199H12.6124V15.2365L12.7298 15.1778C12.8766 15.0897 13.0234 15.031 13.1996 14.9136L13.5225 14.7081L13.6399 16.7631H18.161L17.6032 10.5393H16.7812L16.928 10.2457C17.2803 9.39437 17.6032 8.543 17.8674 7.72099L17.9261 7.5742H18.8069V16.675C18.8069 17.4383 18.3078 17.9081 17.5151 17.9081H15.6656V24.3961H19.0417C23.4454 24.3961 24.7077 22.8989 24.7077 17.6732V0.910024ZM7.2987 18.7301H6.06568V15.4714H7.2987V18.7301ZM7.2987 10.3338H6.06568V7.10448H7.2987V10.3338Z" fill="#6386D1"/>
</svg>
