<svg width="25" height="25" viewBox="0 0 25 25" fill="none" xmlns="http://www.w3.org/2000/svg">
<path d="M9.04085 12.8223H0.615234V15.4057H9.04085V12.8223Z" fill="#6386D1"/>
<path d="M9.04085 9.41602H0.615234V11.9408H9.04085V9.41602Z" fill="#6386D1"/>
<path d="M0.615234 16.3145V24.5052H9.04085V16.3145H0.615234ZM5.48858 21.1291H4.19686V19.7199H5.48858V21.1291Z" fill="#6386D1"/>
<path d="M9.92268 3.66189H0.0878906V8.50589H9.92268V13.4086C10.0401 13.3792 10.1575 13.3205 10.275 13.2912L10.7153 13.1444V14.8765H24.5721V13.4673H23.1336V12.5866H24.0437V11.1481H23.1336V10.2673H24.0437V8.82882H23.1336V7.94809H24.5721V6.24535H23.0162L23.3685 5.57013H18.4951L18.1134 6.24535H16.2933L16.3226 6.01049C16.352 5.86371 16.3813 5.71692 16.3813 5.57013H11.3319C11.1851 6.18664 10.7447 6.94994 9.86397 7.30223L9.57038 7.41966V4.19032H10.8915V4.6894H16.9978V4.21968H17.9667V4.71876H23.9556V4.21968H24.5428V0.784842H23.9556V-0.0078125H17.9667V0.784842H16.9978V-0.0078125H10.8915V0.784842H9.89332V3.66189H9.92268ZM16.5281 7.86002H17.996V8.91689H16.5281V7.86002ZM16.5281 10.1793H17.996V11.2361H16.5281V10.1793ZM16.5281 12.4985H17.996V13.5554H16.5281V12.4985Z" fill="#6386D1"/>
<path d="M9.04085 0.0820312H0.615234V2.78293H9.04085V0.0820312Z" fill="#6386D1"/>
<path d="M17.0262 23.8018H17.0849C18.9638 24.2128 21.3711 24.3889 24.6004 24.4183V20.7192C24.5711 20.7192 24.5123 20.7192 24.483 20.7192C24.3656 20.7192 24.2481 20.7192 24.1307 20.7192H23.7197L23.9546 20.367C24.1307 20.1027 24.2775 19.8679 24.3656 19.6624V15.7578H10.1858V19.222H18.6995L17.9363 19.633C17.5253 19.8385 17.0262 20.044 16.4097 20.2202H16.3509C16.2922 20.2202 16.2335 20.1908 16.2042 20.1615H11.184C11.2427 20.2202 11.2721 20.3082 11.3014 20.367L11.6244 20.866H10.0391V24.4477C12.828 24.4477 15.1473 24.2422 17.0849 23.8312L17.0262 23.8018Z" fill="#6386D1"/>
</svg>
