<svg width="488" height="657" viewBox="0 0 488 657" fill="none" xmlns="http://www.w3.org/2000/svg">
<path d="M584.758 124.773C535.82 186.281 449.816 264.491 328.191 264.491C191.483 264.491 108.528 181.142 69.5373 128.146C26.5354 183.551 0.702148 252.928 0.702148 328.569C0.702148 400.837 24.289 467.323 63.9214 521.604C100.184 469.411 184.263 377.229 328.191 377.229C454.629 377.229 542.88 461.863 590.695 524.334C631.451 469.732 656 401.961 656 328.569C655.84 251.483 629.204 180.821 584.758 124.773Z" fill="#3670C7" fill-opacity="0.1"/>
<path d="M104.355 89.6035C145.592 140.833 218.118 202.984 328.19 202.984C425.265 202.984 497.952 142.118 545.607 83.6615C487.843 32.1104 411.787 0.633789 328.351 0.633789C241.544 0.633789 163.082 34.5194 104.355 89.6035Z" fill="#3670C7" fill-opacity="0.1"/>
<path d="M328.351 438.737C211.7 438.737 137.089 508.596 97.2959 561.111C156.504 620.049 238.175 656.504 328.351 656.504C415.318 656.504 494.262 622.298 552.828 567.053C505.493 505.866 430.4 438.737 328.351 438.737Z" fill="#3670C7" fill-opacity="0.1"/>
</svg>
