<svg width="88" height="88" viewBox="0 0 88 88" fill="none" xmlns="http://www.w3.org/2000/svg">
<path d="M79.6271 69.8119C65.3685 89.4896 37.8608 93.8861 18.1896 79.6275C-1.48819 65.3689 -5.88464 37.8612 8.36731 18.1834C22.6259 -1.48777 50.1336 -5.88423 69.8114 8.36773C89.4892 22.6263 93.8857 50.1341 79.6271 69.8119Z" fill="url(#paint0_linear_83_1620)"/>
<path d="M78.5717 69.0478C64.7382 88.1412 38.0473 92.4048 18.9539 78.5713C-0.139459 64.7377 -4.40973 38.0468 9.42383 18.9535C23.2574 -0.139892 49.9549 -4.40352 69.0483 9.43004C88.1416 23.2636 92.4053 49.9545 78.5717 69.0478Z" fill="url(#paint1_linear_83_1620)"/>
<path d="M77.3621 68.1717C64.0133 86.6009 38.2522 90.7118 19.823 77.3631C1.40037 64.0143 -2.71715 38.2532 10.6316 19.824C23.9804 1.40135 49.7415 -2.71618 68.1707 10.6326C86.6 23.988 90.7108 49.7424 77.3621 68.1717Z" fill="url(#paint2_linear_83_1620)"/>
<path d="M81.7652 30.1832C81.8515 30.4223 81.7319 30.6813 81.4929 30.7676C81.2538 30.854 81.0014 30.7344 80.9151 30.4954C80.8287 30.2563 80.9416 30.0106 81.1807 29.9242C81.4198 29.8312 81.6788 29.9508 81.7652 30.1832Z" fill="#6F5549"/>
<path d="M82.6815 33.0194C82.7545 33.2651 82.6151 33.5109 82.3694 33.5839C82.1236 33.6503 81.8845 33.5109 81.8115 33.2651C81.7451 33.0194 81.8779 32.7803 82.117 32.7139C82.3627 32.6409 82.6084 32.7671 82.6815 33.0194Z" fill="#6F5549"/>
<path d="M83.3855 35.9016C83.4386 36.1539 83.2792 36.3864 83.0335 36.4395C82.7811 36.4926 82.5554 36.3333 82.5022 36.0809C82.4491 35.8285 82.6018 35.6027 82.8542 35.5496C83.0999 35.5031 83.3324 35.6492 83.3855 35.9016Z" fill="#6F5549"/>
<path d="M83.8769 38.8308C83.9101 39.0832 83.7374 39.309 83.485 39.3422C83.2327 39.3754 83.0135 39.2027 82.9803 38.9504C82.9471 38.698 83.1131 38.4788 83.3655 38.4456C83.6178 38.4124 83.8436 38.5784 83.8769 38.8308Z" fill="#6F5549"/>
<path d="M84.1495 41.7851C84.1628 42.0375 83.9768 42.25 83.7178 42.2699C83.4655 42.2832 83.2596 42.0906 83.2463 41.8382C83.233 41.5859 83.4123 41.38 83.6713 41.3667C83.9237 41.3468 84.1362 41.5327 84.1495 41.7851Z" fill="#6F5549"/>
<path d="M84.2027 44.7416C84.196 44.994 83.9902 45.1932 83.7378 45.1866C83.4854 45.1799 83.2928 44.9807 83.2995 44.7217C83.3061 44.4693 83.4987 44.2767 83.7577 44.2834C84.0101 44.29 84.2093 44.4892 84.2027 44.7416Z" fill="#6F5549"/>
<path d="M84.0434 47.7235C84.0169 47.9759 83.8044 48.1619 83.5453 48.1353C83.293 48.1087 83.1203 47.8962 83.1402 47.6372C83.1668 47.3848 83.3727 47.2055 83.6317 47.2321C83.884 47.2587 84.0634 47.4712 84.0434 47.7235Z" fill="#6F5549"/>
<path d="M83.6646 50.6579C83.6247 50.9103 83.3923 51.0763 83.1399 51.0298C82.8875 50.9899 82.7282 50.7575 82.7746 50.5051C82.8145 50.2528 83.0403 50.0934 83.2927 50.1399C83.5384 50.1864 83.7044 50.4122 83.6646 50.6579Z" fill="#6F5549"/>
<path d="M83.0667 53.5607C83.0069 53.8064 82.7612 53.9591 82.5155 53.8927C82.2697 53.833 82.1303 53.5939 82.19 53.3415C82.2498 53.0958 82.4823 52.9497 82.7346 53.0095C82.9737 53.0825 83.1265 53.3149 83.0667 53.5607Z" fill="#6F5549"/>
<path d="M82.2502 56.4298C82.1705 56.6689 81.9181 56.8018 81.6724 56.7221C81.4267 56.6424 81.3071 56.39 81.3868 56.1509C81.4665 55.9052 81.7122 55.7857 81.9513 55.8653C82.1971 55.945 82.3299 56.1908 82.2502 56.4298Z" fill="#6F5549"/>
<path d="M81.2274 59.2125C81.1278 59.4449 80.8688 59.5578 80.6363 59.4649C80.3972 59.3653 80.2976 59.1062 80.3972 58.8738C80.4969 58.6347 80.7426 58.5285 80.9817 58.6281C81.2141 58.7211 81.327 58.9801 81.2274 59.2125Z" fill="#6F5549"/>
<path d="M79.9983 61.9214C79.8854 62.1472 79.6131 62.2401 79.3873 62.1272C79.1615 62.0143 79.0752 61.7487 79.1881 61.5162C79.301 61.2904 79.56 61.2041 79.7925 61.317C80.0183 61.4299 80.1112 61.6956 79.9983 61.9214Z" fill="#6F5549"/>
<path d="M78.5772 64.5257C78.4444 64.7449 78.1721 64.8179 77.9529 64.6851C77.7337 64.5523 77.674 64.28 77.8002 64.0608C77.933 63.8417 78.192 63.7753 78.4111 63.9081C78.6369 64.0343 78.71 64.3066 78.5772 64.5257Z" fill="#6F5549"/>
<path d="M76.9636 67.0154C76.8175 67.2279 76.5386 67.2744 76.3261 67.1283C76.1202 66.9822 76.0737 66.7099 76.2198 66.4973C76.3659 66.2848 76.6316 66.2383 76.8441 66.3844C77.0566 66.5372 77.1097 66.8095 76.9636 67.0154Z" fill="#6F5549"/>
<path d="M75.1769 69.3934C75.0175 69.5927 74.732 69.6192 74.5327 69.4598C74.3335 69.3005 74.3136 69.0215 74.473 68.8223C74.6323 68.6231 74.9046 68.5965 75.1039 68.7559C75.3031 68.9219 75.3363 69.1942 75.1769 69.3934Z" fill="#6F5549"/>
<path d="M73.2248 71.6246C73.0521 71.8105 72.7666 71.8172 72.5806 71.6445C72.3947 71.4718 72.3947 71.1929 72.5673 71.0069C72.74 70.821 73.0123 70.8143 73.1983 70.987C73.3842 71.1597 73.3975 71.4386 73.2248 71.6246Z" fill="#6F5549"/>
<path d="M71.1061 73.7096C70.9201 73.8822 70.6345 73.8689 70.4619 73.683C70.2892 73.497 70.3091 73.2181 70.4951 73.0454C70.681 72.8728 70.96 72.8861 71.126 73.072C71.2987 73.258 71.292 73.5369 71.1061 73.7096Z" fill="#6F5549"/>
<path d="M68.8482 75.6287C68.649 75.7881 68.3634 75.7549 68.2107 75.549C68.0513 75.3498 68.0911 75.0708 68.2903 74.9114C68.4896 74.7521 68.7619 74.7853 68.9213 74.9845C69.074 75.1904 69.0474 75.4693 68.8482 75.6287Z" fill="#6F5549"/>
<path d="M66.4373 77.3759C66.2248 77.5154 65.9459 77.4622 65.8064 77.2497C65.6669 77.0372 65.7201 76.7649 65.9326 76.6254C66.1451 76.486 66.4108 76.5325 66.5569 76.745C66.6963 76.9641 66.6498 77.2364 66.4373 77.3759Z" fill="#6F5549"/>
<path d="M63.927 78.937C63.7079 79.0632 63.4289 78.9901 63.3027 78.7643C63.1766 78.5452 63.2563 78.2729 63.4754 78.1467C63.6946 78.0205 63.9602 78.0936 64.0864 78.3127C64.2126 78.5385 64.1462 78.8108 63.927 78.937Z" fill="#6F5549"/>
<path d="M61.2904 80.3111C61.058 80.4173 60.7923 80.3243 60.6794 80.0919C60.5665 79.8595 60.6661 79.6005 60.8986 79.4942C61.131 79.3813 61.39 79.4743 61.4963 79.7067C61.6092 79.9325 61.5228 80.1982 61.2904 80.3111Z" fill="#6F5549"/>
<path d="M58.5611 81.4863C58.322 81.5792 58.063 81.4663 57.97 81.2272C57.8771 80.9882 57.9966 80.7358 58.2357 80.6428C58.4748 80.5499 58.7205 80.6628 58.8135 80.9018C58.9064 81.1343 58.8002 81.3933 58.5611 81.4863Z" fill="#6F5549"/>
<path d="M55.7449 82.4562C55.4992 82.5293 55.2535 82.3965 55.1738 82.1507C55.1008 81.905 55.2336 81.6659 55.4793 81.5929C55.725 81.5198 55.9641 81.646 56.0372 81.8917C56.1168 82.1374 55.9907 82.3832 55.7449 82.4562Z" fill="#6F5549"/>
<path d="M52.8891 83.213C52.6434 83.2661 52.3977 83.12 52.3445 82.8677C52.2914 82.6153 52.4441 82.3895 52.6899 82.3297C52.9356 82.27 53.168 82.4161 53.2278 82.6684C53.2809 82.9208 53.1415 83.1599 52.8891 83.213Z" fill="#6F5549"/>
<path d="M49.9607 83.7648C49.7084 83.8046 49.4826 83.6319 49.4427 83.3796C49.4029 83.1272 49.5756 82.908 49.8279 82.8682C50.0803 82.8284 50.2994 82.9944 50.3393 83.2467C50.3725 83.4991 50.2131 83.7316 49.9607 83.7648Z" fill="#6F5549"/>
<path d="M47.0051 84.0971C46.7527 84.117 46.5336 83.9311 46.5137 83.6787C46.4937 83.4263 46.6797 83.2138 46.9387 83.1939C47.1911 83.174 47.3969 83.3533 47.4169 83.6056C47.4368 83.8647 47.2641 84.0772 47.0051 84.0971Z" fill="#6F5549"/>
<path d="M44.05 84.2096C43.7977 84.2096 43.5918 84.0104 43.5918 83.7514C43.5918 83.499 43.791 83.2998 44.05 83.2998C44.3024 83.2998 44.5016 83.4924 44.5016 83.7448C44.5016 84.0104 44.309 84.2096 44.05 84.2096Z" fill="#6F5549"/>
<path d="M41.0746 84.11C40.8223 84.0901 40.6363 83.8775 40.6496 83.6252C40.6695 83.3728 40.882 83.1935 41.1344 83.2134C41.3868 83.2333 41.5661 83.4392 41.5528 83.6916C41.5395 83.9439 41.3336 84.1299 41.0746 84.11Z" fill="#6F5549"/>
<path d="M38.1326 83.7837C37.8802 83.7439 37.7142 83.5181 37.7474 83.2657C37.7872 83.0134 38.013 82.854 38.2654 82.8872C38.5178 82.927 38.6838 83.1462 38.6439 83.3985C38.6041 83.6509 38.3849 83.8236 38.1326 83.7837Z" fill="#6F5549"/>
<path d="M35.2107 83.247C34.9583 83.1939 34.8122 82.9482 34.8653 82.7025C34.9185 82.4501 35.1576 82.3106 35.4099 82.3637C35.6623 82.4169 35.8084 82.6493 35.7486 82.9017C35.6889 83.1474 35.4564 83.3002 35.2107 83.247Z" fill="#6F5549"/>
<path d="M32.3279 82.4892C32.0822 82.4162 31.9494 82.1638 32.0224 81.9181C32.0955 81.6724 32.3479 81.5462 32.5869 81.6192C32.8327 81.6923 32.9588 81.938 32.8858 82.1771C32.8127 82.4295 32.5737 82.5623 32.3279 82.4892Z" fill="#6F5549"/>
<path d="M29.5322 81.5263C29.2931 81.4333 29.1802 81.1743 29.2732 80.9352C29.3662 80.6961 29.6252 80.5899 29.8576 80.6829C30.0967 80.7758 30.203 81.0282 30.1166 81.2606C30.0236 81.4997 29.7713 81.6193 29.5322 81.5263Z" fill="#6F5549"/>
<path d="M26.7966 80.3511C26.5641 80.2382 26.4711 79.9726 26.5774 79.7468C26.6903 79.5143 26.9493 79.428 27.1817 79.5343C27.4142 79.6472 27.5072 79.8995 27.3943 80.132C27.288 80.3644 27.0224 80.464 26.7966 80.3511Z" fill="#6F5549"/>
<path d="M24.1595 78.9761C23.9403 78.8499 23.8606 78.5776 23.9868 78.3518C24.113 78.1326 24.3853 78.0596 24.6045 78.1858C24.8236 78.3119 24.8967 78.5776 24.7705 78.7968C24.6509 79.0226 24.3853 79.1022 24.1595 78.9761Z" fill="#6F5549"/>
<path d="M21.643 77.4228C21.4305 77.2833 21.3774 77.0044 21.5169 76.7918C21.6563 76.5793 21.9352 76.5328 22.1478 76.6723C22.3603 76.8118 22.4134 77.0841 22.2673 77.2966C22.1278 77.5091 21.8556 77.5689 21.643 77.4228Z" fill="#6F5549"/>
<path d="M19.2318 75.6759C19.0325 75.5165 18.9927 75.2376 19.1521 75.0383C19.3114 74.8391 19.5837 74.8125 19.7896 74.9653C19.9888 75.1247 20.0221 75.3903 19.8693 75.5962C19.7099 75.7954 19.431 75.8353 19.2318 75.6759Z" fill="#6F5549"/>
<path d="M16.9673 73.7758C16.7813 73.6031 16.7614 73.3175 16.934 73.1316C17.1067 72.9456 17.3856 72.9323 17.5716 73.105C17.7642 73.2777 17.7775 73.55 17.6048 73.7359C17.4321 73.9219 17.1532 73.9418 16.9673 73.7758Z" fill="#6F5549"/>
<path d="M14.8419 71.6973C14.6626 71.5113 14.6759 71.2257 14.8552 71.0531C15.0411 70.8738 15.3201 70.887 15.4927 71.073C15.672 71.259 15.6654 71.5312 15.4794 71.7039C15.2935 71.8832 15.0146 71.8832 14.8419 71.6973Z" fill="#6F5549"/>
<path d="M12.876 69.4794C12.7166 69.2801 12.7432 69.0012 12.9424 68.8418C13.1416 68.6824 13.4139 68.709 13.58 68.9082C13.7393 69.1075 13.7128 69.3797 13.5135 69.5391C13.3143 69.6985 13.042 69.672 12.876 69.4794Z" fill="#6F5549"/>
<path d="M11.0837 67.1081C10.9376 66.9022 10.984 66.6166 11.1966 66.4705C11.4024 66.3244 11.6814 66.3775 11.8275 66.5834C11.9736 66.7893 11.9271 67.0616 11.7212 67.2077C11.5021 67.3604 11.2298 67.3206 11.0837 67.1081Z" fill="#6F5549"/>
<path d="M9.46292 64.6116C9.33009 64.3924 9.40315 64.1202 9.6223 63.9873C9.84146 63.8545 10.1138 63.9276 10.2399 64.1467C10.3728 64.3659 10.2997 64.6315 10.0805 64.7643C9.86139 64.8972 9.5891 64.8308 9.46292 64.6116Z" fill="#6F5549"/>
<path d="M8.03462 62.0008C7.92172 61.775 8.00805 61.5028 8.24049 61.3899C8.46629 61.277 8.73194 61.3699 8.84484 61.5957C8.95774 61.8215 8.8714 62.0805 8.6456 62.1934C8.41316 62.313 8.14752 62.2333 8.03462 62.0008Z" fill="#6F5549"/>
<path d="M6.80673 59.3048C6.70711 59.0657 6.82001 58.8067 7.05909 58.7071C7.29818 58.6075 7.55054 58.7204 7.65016 58.9595C7.74978 59.1986 7.64352 59.4443 7.40443 59.5439C7.16535 59.6435 6.90635 59.5439 6.80673 59.3048Z" fill="#6F5549"/>
<path d="M5.78357 56.5287C5.70388 56.283 5.83006 56.0306 6.07578 55.9509C6.3215 55.8712 6.56723 56.004 6.64692 56.2431C6.72662 56.4888 6.60043 56.7279 6.36135 56.8076C6.11563 56.8873 5.86326 56.7678 5.78357 56.5287Z" fill="#6F5549"/>
<path d="M4.96648 53.6671C4.90671 53.4214 5.05282 53.1757 5.29854 53.1159C5.54427 53.0561 5.78335 53.2022 5.84312 53.448C5.90289 53.6937 5.76343 53.9328 5.5177 53.9925C5.26534 54.0589 5.02625 53.9195 4.96648 53.6671Z" fill="#6F5549"/>
<path d="M4.36229 50.7639C4.3158 50.5115 4.48183 50.2791 4.7342 50.2392C4.98656 50.1928 5.21236 50.3588 5.25221 50.6112C5.29206 50.8635 5.13931 51.0827 4.88695 51.1292C4.63458 51.169 4.40214 51.0163 4.36229 50.7639Z" fill="#6F5549"/>
<path d="M3.9703 47.8229C3.94374 47.5705 4.12969 47.3514 4.38205 47.3248C4.63442 47.2982 4.84694 47.4842 4.8735 47.7365C4.90006 47.9889 4.72075 48.2014 4.46839 48.228C4.20938 48.2479 3.99687 48.0752 3.9703 47.8229Z" fill="#6F5549"/>
<path d="M3.79118 44.8547C3.78454 44.6023 3.98377 44.3965 4.23614 44.3898C4.4885 44.3832 4.68774 44.5824 4.69438 44.8348C4.70102 45.0871 4.50842 45.2864 4.25606 45.293C4.00369 45.2997 3.79782 45.1137 3.79118 44.8547Z" fill="#6F5549"/>
<path d="M3.83756 41.8786C3.85084 41.6262 4.06336 41.4337 4.31573 41.4469C4.56809 41.4602 4.75404 41.6727 4.74076 41.9251C4.72748 42.1775 4.5216 42.3634 4.26924 42.3501C4.01687 42.3369 3.82428 42.131 3.83756 41.8786Z" fill="#6F5549"/>
<path d="M4.10369 38.9174C4.1369 38.665 4.3627 38.4924 4.61506 38.5256C4.86743 38.5588 5.03346 38.7779 5.00025 39.0369C4.96704 39.2893 4.75453 39.4553 4.50216 39.4288C4.24316 39.3889 4.07049 39.1698 4.10369 38.9174Z" fill="#6F5549"/>
<path d="M4.5815 35.988C4.63463 35.7357 4.86707 35.5829 5.11943 35.6294C5.3718 35.6825 5.5179 35.915 5.47141 36.1673C5.41829 36.4197 5.19249 36.5658 4.94012 36.5193C4.68776 36.4662 4.52837 36.2337 4.5815 35.988Z" fill="#6F5549"/>
<path d="M5.27914 33.1126C5.34555 32.8669 5.59792 32.7274 5.84364 32.7939C6.08936 32.8603 6.22219 33.106 6.14913 33.3517C6.08272 33.5974 5.84364 33.7303 5.59792 33.6638C5.34555 33.5974 5.20609 33.3584 5.27914 33.1126Z" fill="#6F5549"/>
<path d="M6.18834 30.2769C6.27467 30.0378 6.53368 29.9182 6.77276 30.0046C7.01184 30.0909 7.12474 30.3499 7.03841 30.589C6.95207 30.8281 6.70635 30.941 6.46727 30.8546C6.22819 30.7683 6.102 30.5159 6.18834 30.2769Z" fill="#6F5549"/>
<path d="M7.30401 27.5339C7.41026 27.3015 7.67591 27.2018 7.90835 27.3081C8.14079 27.4144 8.23377 27.6734 8.12751 27.9058C8.02125 28.1383 7.76889 28.2379 7.53645 28.1316C7.30401 28.0254 7.19775 27.7663 7.30401 27.5339Z" fill="#6F5549"/>
<path d="M8.61924 24.8712C8.73878 24.6454 9.01107 24.5657 9.23687 24.6852C9.46267 24.8047 9.53572 25.077 9.41618 25.3028C9.29664 25.5286 9.03099 25.6083 8.81183 25.4821C8.58603 25.3626 8.4997 25.097 8.61924 24.8712Z" fill="#6F5549"/>
<path d="M10.1336 22.3134C10.2731 22.1009 10.552 22.0411 10.7645 22.1739C10.977 22.3134 11.0368 22.5857 10.8974 22.7982C10.7579 23.0107 10.4922 23.0705 10.2797 22.931C10.0606 22.8049 9.99415 22.5326 10.1336 22.3134Z" fill="#6F5549"/>
<path d="M11.8265 19.877C11.9793 19.6711 12.2582 19.6312 12.4641 19.784C12.67 19.9367 12.7032 20.2157 12.5504 20.4149C12.3977 20.6208 12.1254 20.654 11.9262 20.5012C11.7203 20.3551 11.6738 20.0828 11.8265 19.877Z" fill="#6F5549"/>
<path d="M13.6936 17.5661C13.8596 17.3735 14.1452 17.3536 14.3378 17.5196C14.5303 17.6856 14.5436 17.9646 14.3776 18.1572C14.2116 18.3498 13.9393 18.3697 13.7467 18.2037C13.5541 18.0376 13.5275 17.7587 13.6936 17.5661Z" fill="#6F5549"/>
<path d="M15.7191 15.4001C15.8984 15.2208 16.184 15.2208 16.3633 15.4001C16.5426 15.5794 16.536 15.8583 16.3567 16.0377C16.1773 16.217 15.9051 16.217 15.7257 16.031C15.5464 15.8583 15.5398 15.5794 15.7191 15.4001Z" fill="#6F5549"/>
<path d="M17.9099 13.3881C18.1024 13.2221 18.388 13.242 18.5541 13.4413C18.7201 13.6339 18.6935 13.9128 18.4943 14.0788C18.3017 14.2449 18.0294 14.2249 17.8634 14.0323C17.6973 13.8265 17.7173 13.5542 17.9099 13.3881Z" fill="#6F5549"/>
<path d="M20.2344 11.5482C20.4403 11.3955 20.7192 11.442 20.8719 11.6478C21.0247 11.8537 20.9782 12.126 20.7657 12.2788C20.5598 12.4315 20.2875 12.385 20.1414 12.1791C19.9887 11.9733 20.0285 11.701 20.2344 11.5482Z" fill="#6F5549"/>
<path d="M22.705 9.87482C22.9241 9.74199 23.1964 9.80176 23.3359 10.0209C23.4687 10.2401 23.4023 10.5057 23.1898 10.6452C22.9706 10.778 22.705 10.7182 22.5722 10.4991C22.4261 10.2866 22.4858 10.0076 22.705 9.87482Z" fill="#6F5549"/>
<path d="M25.2753 8.40733C25.5011 8.28778 25.7734 8.37412 25.8929 8.59992C26.0125 8.82572 25.9195 9.09137 25.7003 9.21091C25.4745 9.33045 25.2155 9.25075 25.096 9.02495C24.9698 8.79251 25.0495 8.52023 25.2753 8.40733Z" fill="#6F5549"/>
<path d="M27.9453 7.1194C28.1778 7.01978 28.4434 7.1194 28.543 7.35848C28.6426 7.59093 28.5364 7.84993 28.3039 7.94955C28.0715 8.04917 27.8125 7.94955 27.7129 7.71711C27.6199 7.48467 27.7129 7.22566 27.9453 7.1194Z" fill="#6F5549"/>
<path d="M30.7146 6.04283C30.9537 5.9565 31.2127 6.08268 31.2991 6.32176C31.3854 6.56084 31.2592 6.81321 31.0135 6.8929C30.7744 6.97924 30.5287 6.8597 30.4423 6.61397C30.356 6.38153 30.4689 6.12917 30.7146 6.04283Z" fill="#6F5549"/>
<path d="M33.5503 5.16589C33.796 5.09948 34.0417 5.23895 34.1081 5.49131C34.1746 5.73704 34.0284 5.97612 33.7827 6.04253C33.537 6.10894 33.2979 5.96948 33.2315 5.72375C33.1717 5.47803 33.3046 5.23231 33.5503 5.16589Z" fill="#6F5549"/>
<path d="M36.4462 4.50219C36.6985 4.45571 36.931 4.61509 36.9775 4.86082C37.024 5.11318 36.8646 5.33898 36.6122 5.38547C36.3598 5.43196 36.134 5.27921 36.0876 5.02685C36.0477 4.78112 36.1938 4.54868 36.4462 4.50219Z" fill="#6F5549"/>
<path d="M39.3813 4.05054C39.6336 4.02398 39.8594 4.19665 39.886 4.44901C39.9126 4.70138 39.7399 4.9139 39.4875 4.9471C39.2352 4.97367 39.0226 4.80764 38.9894 4.55527C38.9562 4.30291 39.1289 4.08375 39.3813 4.05054Z" fill="#6F5549"/>
<path d="M42.343 3.82487C42.5954 3.81158 42.8079 4.00418 42.8145 4.26318C42.8278 4.51555 42.6352 4.72142 42.3762 4.72807C42.1238 4.74135 41.918 4.55539 41.9113 4.29639C41.9047 4.04402 42.084 3.83151 42.343 3.82487Z" fill="#6F5549"/>
<path d="M45.3186 3.80485C45.5709 3.8115 45.7702 4.02401 45.7569 4.27638C45.7502 4.52874 45.5444 4.71469 45.2854 4.70805C45.033 4.70141 44.8404 4.50218 44.8537 4.24317C44.8603 3.99081 45.0662 3.79821 45.3186 3.80485Z" fill="#6F5549"/>
<path d="M48.2803 4.01042C48.5326 4.03698 48.7119 4.25614 48.6854 4.51515C48.6588 4.76751 48.4397 4.94018 48.1873 4.91362C47.9349 4.88705 47.7623 4.67454 47.7888 4.42217C47.8154 4.16317 48.0279 3.98385 48.2803 4.01042Z" fill="#6F5549"/>
<path d="M51.2161 4.43578C51.4684 4.48227 51.6278 4.71471 51.5813 4.96707C51.5348 5.21944 51.3024 5.37218 51.05 5.3257C50.7977 5.27921 50.6449 5.05341 50.6914 4.80104C50.7379 4.54868 50.9637 4.38929 51.2161 4.43578Z" fill="#6F5549"/>
<path d="M54.1114 5.06609C54.3571 5.13251 54.5032 5.37159 54.4368 5.62395C54.3704 5.86968 54.1313 6.00914 53.8856 5.94273C53.6399 5.87632 53.5004 5.64388 53.5668 5.39815C53.6266 5.15243 53.8657 5.00632 54.1114 5.06609Z" fill="#6F5549"/>
<path d="M56.9602 5.92327C57.1992 6.00297 57.3254 6.26197 57.2457 6.50106C57.166 6.74014 56.9137 6.85968 56.668 6.77998C56.4289 6.70029 56.3027 6.45457 56.389 6.20884C56.4687 5.96976 56.7144 5.84358 56.9602 5.92327Z" fill="#6F5549"/>
<path d="M59.7298 6.98659C59.9622 7.0862 60.0685 7.35185 59.9689 7.58429C59.8693 7.81673 59.6103 7.91635 59.3712 7.81673C59.1387 7.71712 59.0325 7.46475 59.1321 7.22567C59.2384 6.99323 59.4974 6.88697 59.7298 6.98659Z" fill="#6F5549"/>
<path d="M62.4128 8.24767C62.6386 8.36722 62.725 8.63286 62.6054 8.8653C62.4859 9.0911 62.2203 9.1708 61.9945 9.05126C61.7687 8.93171 61.6823 8.67271 61.8019 8.44691C61.9214 8.22111 62.187 8.12813 62.4128 8.24767Z" fill="#6F5549"/>
<path d="M65.0027 9.70889C65.2219 9.84171 65.2883 10.1206 65.1554 10.3332C65.0226 10.5523 64.7503 10.6121 64.5312 10.4793C64.312 10.3464 64.2522 10.0808 64.3851 9.86163C64.5113 9.64247 64.7835 9.56942 65.0027 9.70889Z" fill="#6F5549"/>
<path d="M67.4533 11.3432C67.6592 11.4893 67.7123 11.7682 67.5662 11.9807C67.4201 12.1933 67.1478 12.2331 66.9353 12.087C66.7228 11.9409 66.6763 11.6686 66.8224 11.4627C66.9685 11.2502 67.2475 11.1971 67.4533 11.3432Z" fill="#6F5549"/>
<path d="M69.8245 13.1758C70.0171 13.3418 70.0436 13.6208 69.8842 13.82C69.7182 14.0126 69.4393 14.0325 69.2467 13.8731C69.0541 13.7137 69.0275 13.4348 69.1936 13.2422C69.3529 13.043 69.6319 13.0164 69.8245 13.1758Z" fill="#6F5549"/>
<path d="M72.0228 15.1546C72.2087 15.334 72.2087 15.6195 72.036 15.7988C71.8567 15.9848 71.5778 15.9781 71.3985 15.8055C71.2125 15.6262 71.2125 15.3539 71.3852 15.1746C71.5579 14.9886 71.8368 14.9753 72.0228 15.1546Z" fill="#6F5549"/>
<path d="M74.0748 17.3C74.2409 17.4925 74.2276 17.7715 74.035 17.9441C73.8424 18.1168 73.5635 18.0903 73.3974 17.9043C73.2248 17.7117 73.2447 17.4394 73.4306 17.2734C73.6299 17.1007 73.9088 17.1074 74.0748 17.3Z" fill="#6F5549"/>
<path d="M75.9676 19.5904C76.1203 19.7962 76.0871 20.0752 75.8812 20.2279C75.6754 20.3807 75.4031 20.3408 75.2503 20.1416C75.0976 19.9357 75.1308 19.6701 75.3367 19.5107C75.5359 19.3579 75.8148 19.3845 75.9676 19.5904Z" fill="#6F5549"/>
<path d="M77.6808 22.0219C77.8203 22.2345 77.7605 22.5134 77.548 22.6529C77.3355 22.7923 77.0632 22.7325 76.9237 22.5134C76.7843 22.3009 76.8374 22.0352 77.0566 21.8958C77.2691 21.7563 77.5414 21.8094 77.6808 22.0219Z" fill="#6F5549"/>
<path d="M79.2149 24.5653C79.3344 24.7911 79.2547 25.0634 79.0356 25.1829C78.8098 25.3091 78.5441 25.2228 78.4246 24.997C78.2984 24.7712 78.3781 24.5122 78.6039 24.386C78.8164 24.2731 79.0887 24.3395 79.2149 24.5653Z" fill="#6F5549"/>
<path d="M80.5435 27.215C80.6497 27.4475 80.5501 27.7131 80.3177 27.8194C80.0852 27.9256 79.8262 27.826 79.72 27.5936C79.6137 27.3611 79.7067 27.1088 79.9391 26.9959C80.1782 26.8896 80.4372 26.9826 80.5435 27.215Z" fill="#6F5549"/>
<path d="M73.8626 65.6342C61.9152 82.1243 38.857 85.8101 22.367 73.8626C5.87032 61.9085 2.19111 38.857 14.1386 22.367C26.0861 5.87032 49.1442 2.19111 65.6342 14.1386C82.1243 26.0861 85.8101 49.1376 73.8626 65.6342Z" fill="url(#paint3_linear_83_1620)"/>
<path d="M72.0895 64.3526C60.8527 79.8663 39.1626 83.333 23.6488 72.0895C8.13504 60.8527 4.66835 39.1626 15.9119 23.6488C27.1487 8.13504 48.8388 4.66835 64.3526 15.9119C79.8663 27.1487 83.3264 48.8388 72.0895 64.3526Z" fill="url(#paint4_radial_83_1620)"/>
<path opacity="0.5" d="M69.2474 33.9958C72.8403 36.5991 75.9815 39.5876 78.6579 42.8684C78.3126 32.5281 73.3716 22.4534 64.3462 15.9119C48.8391 4.66835 27.149 8.13504 15.9121 23.6488C13.6409 26.7835 11.9806 30.1705 10.8848 33.677C27.9127 21.61 51.4092 21.072 69.2474 33.9958Z" fill="white"/>
<path d="M37.5105 35.3658C38.0452 34.9287 39.7705 36.0218 40.9856 36.9698C42.2006 37.9178 42.6378 38.3793 43.1968 38.3062C43.7559 38.2331 45.797 37.0424 47.7899 36.8241C49.7829 36.6058 51.7265 37.6746 52.5044 38.5251C53.2823 39.3755 53.3803 39.8074 53.5981 40.0559C54.0236 40.5418 54.3098 40.5085 54.6918 41.1979C55.129 41.9874 54.9732 42.8071 55.2424 43.3201C55.7447 44.276 57.0891 45.4911 56.166 47.3701C55.4745 48.7775 53.7682 49.2252 53.4768 48.1803C53.1853 47.1353 53.428 45.7179 53.995 45.313C54.4931 44.9569 54.8778 46.2689 53.9304 47.9699C52.9829 49.6709 52.2612 50.2855 50.7065 50.5537C48.8757 50.8695 47.7174 50.675 46.284 49.9703C44.8501 49.2655 44.3398 48.5364 43.8295 47.759C43.3192 46.9811 43.6838 46.7872 42.6145 45.888C41.5451 44.9887 39.442 42.9947 38.8236 40.8577C38.13 38.4641 37.0034 35.7807 37.5105 35.3658Z" stroke="#6F5549" stroke-width="1.3" stroke-miterlimit="10"/>
<path d="M50.7051 50.5535C50.7051 50.5535 51.191 53.5427 49.4656 54.5876C47.7403 55.6326 41.8595 52.9836 43.1472 52.1088C44.4348 51.2339 50.1942 55.6326 52.1872 57.1878C54.1801 58.743 55.1541 60.8435 54.8843 61.6591C54.435 63.0198 55.7973 63.6642 54.1796 65.1585C51.6281 67.5155 46.2492 67.313 40.7086 67.0216C33.6636 66.6507 37.0067 65.4261 35.5246 64.2349C34.0425 63.0442 31.9441 60.9299 31.2394 58.8156C30.5346 56.7014 31.5308 54.2225 32.3574 52.5459C33.1841 50.8693 34.7144 49.0221 35.8325 48.0747C36.9506 47.1272 39.7813 44.4417 39.9031 43.0078" stroke="#6F5549" stroke-width="1.3" stroke-miterlimit="10"/>
<path d="M35.813 64.5518C35.813 64.5518 36.6757 66.5362 40.7097 67.0221" stroke="#6F5549" stroke-width="1.3" stroke-miterlimit="10"/>
<path d="M45.6991 37.31C45.6991 37.31 45.7155 36.5485 45.9423 36.1437C46.1691 35.7388 45.6185 34.8475 45.3106 34.1348C45.0028 33.4221 45.1649 32.4662 45.1808 32.2071C45.1972 31.948 45.2455 31.7535 45.5046 31.7212C45.7637 31.6888 46.5575 33.3575 47.2379 33.9891C47.9183 34.6208 49.198 35.9979 49.3765 36.9051" stroke="#6F5549" stroke-width="1.3" stroke-miterlimit="10"/>
<line x1="33" y1="25.3203" x2="27" y2="25.3203" stroke="#6F5549" stroke-width="0.5"/>
<path d="M36.135 23.5953H37.34V24.0153H36.135V23.5953ZM36.16 24.2153H37.31V24.6203H36.16V24.2153ZM36.13 24.8353H37.345V25.2553H36.13V24.8353ZM35.42 23.4053H36.015V28.0203H35.42V23.4053ZM36.495 23.7003H36.945V25.0253H36.495V23.7003ZM37.55 23.5953H38.825V24.0153H37.55V23.5953ZM37.575 24.2153H38.8V24.6203H37.575V24.2153ZM37.545 24.8353H38.835V25.2553H37.545V24.8353ZM37.95 23.7003H38.415V25.0253H37.95V23.7003ZM38.97 23.4053H39.57V27.3353C39.57 27.6603 39.5 27.8153 39.305 27.9103C39.105 28.0003 38.81 28.0203 38.375 28.0153C38.345 27.8553 38.255 27.6003 38.165 27.4453C38.455 27.4553 38.75 27.4553 38.84 27.4503C38.935 27.4503 38.97 27.4203 38.97 27.3353V23.4053ZM43.185 23.3953H43.845V27.2703C43.845 27.6403 43.76 27.8053 43.53 27.9003C43.3 28.0003 42.955 28.0203 42.465 28.0153C42.435 27.8403 42.32 27.5553 42.225 27.3903C42.555 27.4103 42.93 27.4053 43.035 27.4003C43.145 27.4003 43.185 27.3653 43.185 27.2653V23.3953ZM44.39 24.7103L44.975 24.4903C45.385 25.1953 45.8 26.1103 45.925 26.7353L45.27 26.9953C45.165 26.3903 44.785 25.4453 44.39 24.7103ZM41.875 24.5403L42.56 24.6553C42.39 25.4103 42.115 26.3453 41.695 26.9003C41.55 26.7903 41.275 26.6503 41.11 26.5853C41.515 26.0753 41.77 25.1953 41.875 24.5403ZM48.96 25.8853H51.81V26.4103H48.96V25.8853ZM50.05 23.7253H51.345L51.22 24.1253H49.805L50.05 23.7253ZM50.68 25.2803H51.25V27.3203C51.25 27.6053 51.205 27.7703 51.01 27.8603C50.825 27.9503 50.555 27.9603 50.185 27.9603C50.165 27.7953 50.09 27.5503 50.015 27.3853C50.25 27.3953 50.505 27.3953 50.585 27.3903C50.66 27.3903 50.68 27.3753 50.68 27.3103V25.2803ZM50.155 23.3203L50.74 23.4753C50.35 23.9703 49.75 24.4303 49.165 24.7053C49.08 24.5953 48.9 24.4253 48.79 24.3303C49.355 24.1153 49.875 23.7053 50.155 23.3203ZM49.225 26.6553L49.685 26.3953C49.91 26.6303 50.175 26.9553 50.285 27.1803L49.795 27.4753C49.695 27.2503 49.445 26.9053 49.225 26.6553ZM49.65 24.2503L50.01 23.9903C50.285 24.2053 50.595 24.5203 50.73 24.7553L50.345 25.0403C50.22 24.8103 49.92 24.4803 49.65 24.2503ZM47.59 24.7353H48.515V25.2503H47.59V24.7353ZM47.15 25.8053H48.475V26.3203H47.15V25.8053ZM48.255 23.3253H48.81V28.0203H48.255V23.3253ZM47.35 23.5303H47.87V25.2503H47.35V23.5303ZM47.4 26.0203H47.92V26.3253C47.92 26.7403 47.87 27.5203 47.535 28.0303C47.44 27.9403 47.225 27.8003 47.095 27.7453C47.365 27.3103 47.4 26.6653 47.4 26.3053V26.0203ZM51.135 23.7253H51.24L51.34 23.7003L51.705 23.8753C51.28 25.0053 50.315 25.6353 49.215 25.9603C49.155 25.8303 49.02 25.6353 48.92 25.5253C49.9 25.2903 50.805 24.6953 51.135 23.8153V23.7253ZM48.915 24.8203C49.18 24.7853 49.525 24.7253 49.9 24.6603L49.94 25.0503C49.62 25.1153 49.3 25.1803 49.01 25.2353L48.915 24.8203Z" fill="#6F5549"/>
<line x1="60" y1="25.3203" x2="54" y2="25.3203" stroke="#6F5549" stroke-width="0.5"/>
<path d="M65.265 58.2298C66.5572 57.1488 67.663 55.7945 68.6446 54.434C70.8624 51.365 72.3783 47.7866 72.8442 44.0157C73.4406 39.2197 72.1422 34.4609 69.8436 30.2675C69.8187 30.224 69.5951 30.3545 69.6261 30.4042C72.1981 35.0884 73.4157 40.3938 72.3721 45.693C71.6638 49.3025 69.9492 52.6696 67.6692 55.5336C66.9051 56.4903 66.0726 57.447 65.1283 58.236C64.9917 58.3478 65.2215 58.267 65.265 58.2298Z" fill="#6F5549"/>
<path d="M69.1538 33.709C69.1538 33.709 69.1538 33.7276 69.1601 33.7587C69.129 33.7587 69.1104 33.7587 69.1104 33.7587L69.1663 33.8084C69.2532 34.293 69.7875 36.4549 71.9805 36.1381L72.024 36.1753C72.024 36.1629 72.024 36.1443 72.024 36.1318C72.0364 36.1318 72.0488 36.1256 72.0675 36.1256L72.024 36.0884C71.9246 33.8767 69.7005 33.7587 69.2098 33.7587L69.1538 33.709Z" fill="#6F5549"/>
<path d="M70.0176 38.1631C70.0176 38.1631 70.0176 38.1817 70.0238 38.2128C69.9928 38.2128 69.9741 38.2066 69.9741 38.2066L70.0238 38.2625C70.0673 38.7533 70.3966 40.9525 72.6082 40.8469L72.6517 40.8904C72.6517 40.8779 72.6517 40.8593 72.6517 40.8469C72.6641 40.8469 72.6765 40.8469 72.6952 40.8469L72.6517 40.8034C72.7635 38.5917 70.5581 38.2625 70.0673 38.219L70.0176 38.1631Z" fill="#6F5549"/>
<path d="M69.9989 43.0713C69.9989 43.0713 69.9989 43.0899 69.9989 43.121C69.9679 43.1148 69.9492 43.1086 69.9492 43.1086L69.9927 43.1707C69.9679 43.6615 69.9927 45.8917 72.2043 46.0781L72.2354 46.1278C72.2416 46.1092 72.2416 46.0968 72.2416 46.0843C72.254 46.0843 72.2727 46.0843 72.2851 46.0905L72.2478 46.0408C72.6579 43.8665 70.5208 43.2452 70.0362 43.1334L69.9989 43.0713Z" fill="#6F5549"/>
<path d="M69.4956 47.78L69.508 47.8546C69.272 48.2894 68.3152 50.296 70.2162 51.4391L70.2287 51.495C70.2349 51.4826 70.2473 51.4702 70.2535 51.4578C70.266 51.464 70.2784 51.4702 70.2908 51.4826L70.2784 51.4267C71.6016 49.65 69.9553 48.1528 69.5702 47.8421L69.5577 47.7676C69.5577 47.7676 69.5515 47.7862 69.5329 47.8111C69.5142 47.7862 69.4956 47.78 69.4956 47.78Z" fill="#6F5549"/>
<path d="M67.601 51.4577L67.6072 51.5323C67.3152 51.9237 66.079 53.7812 67.7998 55.179V55.2349C67.8122 55.2225 67.8185 55.2163 67.8309 55.2038C67.8433 55.2101 67.8557 55.2225 67.8681 55.2287L67.8619 55.1666C69.4213 53.5948 68.0048 51.8802 67.6694 51.5199V51.4453C67.6694 51.4453 67.6569 51.4577 67.6383 51.4826C67.6134 51.4702 67.601 51.4577 67.601 51.4577Z" fill="#6F5549"/>
<path d="M74.2234 32.9014L74.1799 32.9635H74.1737C73.6953 33.1126 71.6203 33.8891 72.1857 36.0262L72.1546 36.0759C72.167 36.0759 72.1857 36.0697 72.1981 36.0697C72.2043 36.0821 72.2043 36.0946 72.2105 36.1132L72.2416 36.0635C72.3907 36.0387 72.5274 36.0076 72.6516 35.9703C74.4097 35.4236 74.2855 33.4605 74.2296 33.0008L74.2731 32.9386C74.2731 32.9386 74.2544 32.9449 74.2234 32.9511C74.2234 32.92 74.2234 32.9014 74.2234 32.9014Z" fill="#6F5549"/>
<path d="M74.6211 37.4053L74.5901 37.4736C74.1303 37.6538 72.1175 38.6043 72.8568 40.6917L72.8257 40.7414C72.8382 40.7351 72.8568 40.7351 72.8692 40.7289C72.8754 40.7414 72.8754 40.7538 72.8816 40.7662L72.9065 40.7165C72.9686 40.7041 73.0307 40.6854 73.0867 40.6668C75.0374 40.058 74.733 37.9706 74.6336 37.5047L74.6708 37.4363C74.6708 37.4363 74.6522 37.4425 74.6211 37.455C74.6273 37.4239 74.6211 37.4053 74.6211 37.4053Z" fill="#6F5549"/>
<path d="M74.2979 43.4748C73.4903 43.7295 72.2851 44.3818 72.4528 46.0468L72.4155 46.0903C72.428 46.0903 72.4466 46.0903 72.459 46.0903C72.459 46.1027 72.459 46.1213 72.4652 46.1337L72.5025 46.0903C72.8007 46.0903 73.0678 46.053 73.2977 45.9784C74.77 45.5187 74.9316 43.8103 74.9502 43.3816L74.9999 43.3257C74.9999 43.3257 74.9813 43.3257 74.9502 43.3319C74.9502 43.3009 74.9502 43.2822 74.9502 43.2822L74.9005 43.3381C74.7825 43.3568 74.5588 43.3941 74.2979 43.4748Z" fill="#6F5549"/>
<path d="M72.1235 49.2526C71.3532 49.4949 70.4897 50.0664 70.44 51.4332L70.3965 51.4704C70.4089 51.4704 70.4275 51.4766 70.44 51.4766C70.44 51.4891 70.44 51.5077 70.44 51.5201L70.4835 51.4829C70.9059 51.5388 71.2662 51.5077 71.5769 51.4145C72.8628 51.0107 73.2107 49.5259 73.2791 49.1346L73.335 49.0849C73.335 49.0849 73.3163 49.0849 73.2853 49.0849C73.2915 49.0538 73.2915 49.0352 73.2915 49.0352L73.2356 49.0849C73.043 49.0849 72.6019 49.1035 72.1235 49.2526Z" fill="#6F5549"/>
<path d="M69.2161 53.8189C68.657 53.9929 68.1227 54.3967 67.8059 55.2229L67.75 55.2416C67.7624 55.2478 67.7749 55.254 67.7873 55.2602C67.7811 55.2726 67.7749 55.2851 67.7749 55.3037L67.8308 55.2851C68.4955 55.6143 69.067 55.6267 69.5454 55.4776C70.5021 55.1794 71.0799 54.2538 71.2352 53.9618L71.3035 53.937C71.3035 53.937 71.2849 53.9307 71.26 53.9183C71.2725 53.8873 71.2849 53.8748 71.2849 53.8748L71.2165 53.8997C70.9308 53.8065 70.0486 53.558 69.2161 53.8189Z" fill="#6F5549"/>
<path d="M69.2907 29C69.2907 29 69.2845 29.0186 69.2782 29.0435C69.2534 29.0311 69.2348 29.0186 69.2348 29.0186L69.2596 29.087C69.1105 29.5529 68.5514 31.7086 70.6264 32.4728L70.6512 32.5287C70.6574 32.5162 70.6636 32.5038 70.6698 32.4914C70.6823 32.4976 70.6947 32.4976 70.7071 32.5038L70.6823 32.4479C71.6514 30.4537 69.7504 29.292 69.3155 29.0621L69.2907 29Z" fill="#6F5549"/>
<path d="M22.7352 58.2301C21.443 57.1492 20.3372 55.7948 19.3556 54.4343C17.1378 51.3654 15.6282 47.787 15.156 44.016C14.5658 39.22 15.858 34.4551 18.1566 30.2617C18.1815 30.2182 18.4051 30.3486 18.3741 30.3983C15.8083 35.0887 14.5907 40.3942 15.6344 45.6934C16.3426 49.3028 18.0572 52.67 20.3372 55.5339C21.1013 56.4906 21.9338 57.4474 22.8781 58.2363C23.0086 58.3482 22.7849 58.2674 22.7352 58.2301Z" fill="#6F5549"/>
<path d="M18.8463 33.709L18.7903 33.7587C18.2996 33.7587 16.0755 33.8767 15.9761 36.0884L15.9326 36.1256C15.945 36.1256 15.9637 36.1318 15.9761 36.1318C15.9761 36.1443 15.9761 36.1567 15.9761 36.1753L16.0196 36.1381C18.2064 36.4549 18.7406 34.293 18.8276 33.8084L18.8835 33.7587C18.8835 33.7587 18.8649 33.7587 18.8338 33.7587C18.84 33.7276 18.8463 33.709 18.8463 33.709Z" fill="#6F5549"/>
<path d="M17.9826 38.1631L17.9267 38.219C17.4359 38.2625 15.2367 38.5917 15.3423 40.8034L15.2988 40.8469C15.3175 40.8469 15.3299 40.8469 15.3423 40.8469C15.3423 40.8593 15.3423 40.8779 15.3423 40.8904L15.3858 40.8469C17.5974 40.9587 17.9205 38.7533 17.9702 38.2625L18.0199 38.2066C18.0199 38.2066 18.0012 38.2066 17.9702 38.2128C17.9826 38.1817 17.9826 38.1631 17.9826 38.1631Z" fill="#6F5549"/>
<path d="M18.0068 43.0713L17.9633 43.1272C17.4849 43.239 15.3478 43.8603 15.7517 46.0346L15.7144 46.0843C15.7268 46.0843 15.7454 46.0781 15.7579 46.0781C15.7641 46.0905 15.7641 46.103 15.7641 46.1216L15.8014 46.0719C18.0068 45.8793 18.0316 43.6553 18.013 43.1645L18.0565 43.1024C18.0565 43.1024 18.0378 43.1086 18.0068 43.1148C18.0068 43.0899 18.0068 43.0713 18.0068 43.0713Z" fill="#6F5549"/>
<path d="M18.5046 47.78C18.5046 47.78 18.4859 47.7924 18.4673 47.8111C18.4549 47.7862 18.4425 47.7676 18.4425 47.7676L18.43 47.8421C18.0449 48.1528 16.3986 49.65 17.7218 51.4267L17.7094 51.4826C17.7218 51.4764 17.7342 51.464 17.7467 51.4578C17.7529 51.4702 17.7653 51.4826 17.7715 51.495L17.7839 51.4391C19.6849 50.3023 18.7282 48.2894 18.4922 47.8546L18.5046 47.78Z" fill="#6F5549"/>
<path d="M20.3994 51.458C20.3994 51.458 20.387 51.4704 20.3684 51.4953C20.3497 51.4704 20.3373 51.458 20.3373 51.458V51.5326C20.0018 51.8929 18.5854 53.6075 20.1447 55.1793L20.1385 55.2414C20.1509 55.229 20.1634 55.2228 20.1758 55.2165C20.1882 55.2228 20.1944 55.2352 20.2069 55.2476L20.2131 55.1917C21.9277 53.7939 20.6976 51.9364 20.4057 51.545L20.3994 51.458Z" fill="#6F5549"/>
<path d="M13.7825 32.9014C13.7825 32.9014 13.7763 32.92 13.7763 32.9511C13.7452 32.9386 13.7266 32.9386 13.7266 32.9386L13.77 33.0008C13.7141 33.4543 13.5899 35.4174 15.348 35.9703C15.4723 36.0076 15.6089 36.0449 15.758 36.0635L15.7891 36.1132C15.7953 36.1008 15.7953 36.0821 15.8015 36.0697C15.8139 36.0697 15.8326 36.0759 15.845 36.0759L15.8139 36.0262C16.3793 33.8954 14.3105 33.1126 13.826 32.9635C13.826 32.9635 13.826 32.9635 13.8197 32.9635L13.7825 32.9014Z" fill="#6F5549"/>
<path d="M13.3794 37.4053C13.3794 37.4053 13.3732 37.4239 13.367 37.4488C13.3359 37.4363 13.3173 37.4301 13.3173 37.4301L13.3546 37.4985C13.2552 37.9706 12.957 40.058 14.9015 40.6606C14.9574 40.6792 15.0195 40.6979 15.0816 40.7103L15.1065 40.76C15.1127 40.7476 15.1127 40.7289 15.1189 40.7227C15.1313 40.7227 15.1437 40.7289 15.1624 40.7351L15.1375 40.6854C15.8768 38.5981 13.864 37.6538 13.4043 37.4674L13.3794 37.4053Z" fill="#6F5549"/>
<path d="M13.702 43.4748C13.4411 43.3941 13.2174 43.3506 13.0994 43.3381L13.0497 43.2822C13.0497 43.2822 13.0497 43.3009 13.0497 43.3319C13.0186 43.3257 13 43.3257 13 43.3257L13.0497 43.3816C13.0683 43.8041 13.2299 45.5187 14.7022 45.9784C14.9321 46.053 15.1992 46.0903 15.4974 46.0903L15.5347 46.1337C15.5347 46.1213 15.5347 46.1027 15.5409 46.0903C15.5533 46.0903 15.572 46.0903 15.5844 46.0903L15.5471 46.0468C15.7148 44.388 14.5158 43.7295 13.702 43.4748Z" fill="#6F5549"/>
<path d="M15.8765 49.2526C15.3981 49.1035 14.957 49.0849 14.7644 49.0849L14.7085 49.0352C14.7085 49.0352 14.7085 49.0538 14.7147 49.0849C14.6837 49.0849 14.665 49.0849 14.665 49.0849L14.721 49.1346C14.7893 49.5259 15.1372 51.0107 16.4232 51.4145C16.7338 51.5077 17.0941 51.545 17.5166 51.4829L17.56 51.5201C17.56 51.5077 17.56 51.4891 17.56 51.4766C17.5725 51.4766 17.5849 51.4704 17.6035 51.4704L17.56 51.4332C17.5103 50.0664 16.6468 49.4949 15.8765 49.2526Z" fill="#6F5549"/>
<path d="M18.7902 53.8187C17.9577 53.5578 17.0755 53.8063 16.796 53.9057L16.7276 53.8808C16.7276 53.8808 16.7338 53.8995 16.7525 53.9243C16.7214 53.9305 16.709 53.943 16.709 53.943L16.7773 53.9678C16.9326 54.2536 17.5166 55.1854 18.4671 55.4836C18.9455 55.6327 19.517 55.6203 20.1817 55.2911L20.2377 55.3097C20.2314 55.2973 20.2252 55.2848 20.2252 55.2662C20.2377 55.26 20.2501 55.2538 20.2625 55.2476L20.2066 55.2289C19.8773 54.3903 19.3431 53.9927 18.7902 53.8187Z" fill="#6F5549"/>
<path d="M18.7093 29L18.6844 29.0683C18.2495 29.2982 16.3485 30.4599 17.3177 32.4541L17.2928 32.51C17.3052 32.5038 17.3177 32.4976 17.3301 32.4976C17.3363 32.51 17.3425 32.5225 17.3487 32.5349L17.3736 32.479C19.4485 31.7148 18.8894 29.5591 18.7403 29.0932L18.7714 29.0248C18.7714 29.0248 18.7527 29.0311 18.7279 29.0497C18.7155 29.0186 18.7093 29 18.7093 29Z" fill="#6F5549"/>
<defs>
<linearGradient id="paint0_linear_83_1620" x1="8.3703" y1="18.1865" x2="79.6266" y2="69.8116" gradientUnits="userSpaceOnUse">
<stop stop-color="#FFE7A2"/>
<stop offset="1" stop-color="#963D00"/>
</linearGradient>
<linearGradient id="paint1_linear_83_1620" x1="9.42625" y1="18.9514" x2="78.5704" y2="69.0463" gradientUnits="userSpaceOnUse">
<stop offset="0.005618" stop-color="#EBC17D"/>
<stop offset="0.1854" stop-color="#EDD089"/>
<stop offset="0.4101" stop-color="#F4E8D9"/>
<stop offset="0.7303" stop-color="#C08329"/>
<stop offset="0.9494" stop-color="#EABE81"/>
</linearGradient>
<linearGradient id="paint2_linear_83_1620" x1="10.6327" y1="19.8263" x2="77.3633" y2="68.1726" gradientUnits="userSpaceOnUse">
<stop offset="0.005618" stop-color="#EBC17D"/>
<stop offset="0.1854" stop-color="#DFB77C"/>
<stop offset="0.5955" stop-color="#C08329"/>
<stop offset="0.8708" stop-color="#EABE81"/>
<stop offset="1" stop-color="#EEDCC3"/>
</linearGradient>
<linearGradient id="paint3_linear_83_1620" x1="14.1374" y1="22.3646" x2="73.8597" y2="65.6334" gradientUnits="userSpaceOnUse">
<stop offset="0.005618" stop-color="#EBC17D"/>
<stop offset="0.1854" stop-color="#EDD089"/>
<stop offset="0.4101" stop-color="#F4E8D9"/>
<stop offset="0.7303" stop-color="#C08329"/>
<stop offset="0.9494" stop-color="#EABE81"/>
</linearGradient>
<radialGradient id="paint4_radial_83_1620" cx="0" cy="0" r="1" gradientUnits="userSpaceOnUse" gradientTransform="translate(43.9984 43.9992) rotate(35.9233) scale(46.6383)">
<stop offset="0.2478" stop-color="#EDD089"/>
<stop offset="1" stop-color="#C08329"/>
</radialGradient>
</defs>
</svg>
