<svg width="63" height="55" viewBox="0 0 63 55" fill="none" xmlns="http://www.w3.org/2000/svg">
<path d="M21.4935 24.7426C26.4514 24.7426 30.4931 19.3438 30.4931 12.7107C30.4931 6.08827 26.4514 0.689453 21.4935 0.689453C16.5356 0.689453 12.4939 6.08827 12.4939 12.7214C12.4939 19.3545 16.5356 24.7426 21.4935 24.7426Z" fill="white"/>
<path d="M48.1776 36.4407C47.9944 36.1939 47.8111 35.9577 47.7249 35.7538C45.7094 31.4605 40.2019 26.4052 31.267 26.2871H30.9221C22.1273 26.2871 16.6521 31.0741 14.4534 35.5606C14.3779 35.7109 14.2162 35.9148 14.033 36.1187C13.8282 36.3656 13.6127 36.6125 13.4402 36.8915C11.5864 39.7573 10.6487 42.988 10.7889 45.9826C10.929 49.1596 12.2654 51.7141 14.5396 53.1739C15.4557 53.7642 16.4473 54.054 17.4927 54.054C19.6376 54.054 21.5991 52.8519 23.8733 51.4565C25.3175 50.5657 26.8157 49.6534 28.4755 48.9664C28.6587 48.902 29.424 48.8162 30.6742 48.8162C32.1616 48.8162 33.2178 48.945 33.4441 49.0201C35.0608 49.7285 36.4835 50.6623 37.8631 51.5639C39.9756 52.9485 41.9695 54.2579 44.1251 54.2579C45.052 54.2579 45.9573 54.011 46.798 53.5388C51.4757 50.8877 52.3702 43.632 48.7812 37.3531C48.6087 37.0203 48.3932 36.7305 48.1776 36.4407Z" fill="white"/>
<path d="M40.6253 24.7426C45.5832 24.7426 49.6249 19.3438 49.6249 12.7107C49.6249 6.08827 45.594 0.689453 40.6253 0.689453C35.6675 0.689453 31.6257 6.08827 31.6257 12.7214C31.6257 19.3545 35.6675 24.7426 40.6253 24.7426Z" fill="white"/>
<path d="M55.4022 18.5693C51.4251 18.5693 48.3103 22.6802 48.3103 27.918C48.3103 33.1558 51.4251 37.2666 55.4022 37.2666C59.3793 37.2666 62.4941 33.1558 62.4941 27.918C62.4941 22.6694 59.3793 18.5693 55.4022 18.5693Z" fill="white"/>
<path d="M14.5527 27.918C14.5527 22.6694 11.4379 18.5693 7.4608 18.5693C3.48373 18.5693 0.368896 22.6694 0.368896 27.918C0.368896 33.1558 3.48373 37.2666 7.4608 37.2666C11.4379 37.2666 14.5527 33.1558 14.5527 27.918Z" fill="white"/>
</svg>
